# xmcd
#
# Track frame offsets:
# 150
# 13176
# 25724
# 36403
# 44927
# 60226
# 73021
# 84441
# 103113
# 131352
# 140867
# 151417
# 161665
#
# Disc length: 2404 seconds
#
#
# Revision: 0
# Processed by: cddbd v1.5.2PL0 Copyright (c) Steve Scherf et al.
# Submitted via: FreeRIP 2.80 
#
DISCID=b409620d
DTITLE=Johny Cash - 
DYEAR=1900
DGENRE=
TTITLE0=Wanted Man
TTITLE1=I walk the line
TTITLE2=You win again
TTITLE3=A boy named Sue
TTITLE4=Darlin´ companion
TTITLE5=Folsom prison blues
TTITLE6=Peace in the valley
TTITLE7=San Quentin
TTITLE8=Starkville city jail
TTITLE9=Wreck of the old 97
TTITLE10=Daddy sang bass
TTITLE11=Get rhythm
TTITLE12=Sunday morning coming down
EXTD=
EXTT0=
EXTT1=
EXTT2=
EXTT3=
EXTT4=
EXTT5=
EXTT6=
EXTT7=
EXTT8=
EXTT9=
EXTT10=
EXTT11=
EXTT12=
PLAYORDER=
